<svg xmlns="http://www.w3.org/2000/svg" width="768" height="768" viewBox="0 0 768 768" version="1.1"><path d="M -0 384.001 L -0 768.003 384.250 767.751 L 768.500 767.500 768.751 383.750 L 769.003 0 384.501 0 L 0 0 -0 384.001 M 0.495 384.500 C 0.495 595.700, 0.610 681.951, 0.750 576.169 C 0.890 470.386, 0.890 297.586, 0.750 192.169 C 0.610 86.751, 0.495 173.300, 0.495 384.500 M 279 32.500 L 279 61 301 61 L 323 61 323 271 L 323 481 281 481 L 239 481 239 321.521 L 239 162.042 258.514 161.771 L 278.029 161.500 278.096 133.500 L 278.162 105.500 180.019 105.500 L 81.876 105.500 81.916 133.500 L 81.956 161.500 103.978 161.769 L 126 162.038 126 347 L 126 531.961 162.250 568.981 L 198.500 606 260.750 606 L 323 606 323 647.980 L 323 689.961 301.250 690.230 L 279.500 690.500 279.238 727.250 L 278.975 764 383.488 764 L 488 764 488 727.019 L 488 690.038 465.750 689.769 C 453.512 689.621, 443.613 689.163, 443.750 688.750 C 443.887 688.337, 444 669.550, 444 647 L 444 606 505.750 605.991 L 567.500 605.981 603.750 568.931 L 640 531.881 640 346.959 L 640 162.038 661.997 161.769 L 683.994 161.500 684.126 133.500 L 684.258 105.500 586.129 105.245 L 488 104.990 488 132.495 C 488 147.623, 487.887 160.338, 487.750 160.750 C 487.613 161.162, 496.387 161.622, 507.250 161.771 L 527 162.042 527 321.521 L 527 481 485.500 481 L 444 481 444 271 L 444 61 466 61 L 488 61 488 32.500 L 488 4 383.500 4 L 279 4 279 32.500" stroke="none" fill="#fbfbfb" fill-rule="evenodd"/><path d="M 279 32.500 L 279 61 301 61 L 323 61 323 271 L 323 481 281 481 L 239 481 239 321.521 L 239 162.042 258.514 161.771 L 278.029 161.500 278.096 133.500 L 278.162 105.500 180.019 105.500 L 81.876 105.500 81.916 133.500 L 81.956 161.500 103.978 161.769 L 126 162.038 126 347 L 126 531.961 162.250 568.981 L 198.500 606 260.750 606 L 323 606 323 647.980 L 323 689.961 301.250 690.230 L 279.500 690.500 279.238 727.250 L 278.975 764 383.488 764 L 488 764 488 727.019 L 488 690.038 465.750 689.769 C 453.512 689.621, 443.613 689.163, 443.750 688.750 C 443.887 688.337, 444 669.550, 444 647 L 444 606 505.750 605.991 L 567.500 605.981 603.750 568.931 L 640 531.881 640 346.959 L 640 162.038 661.997 161.769 L 683.994 161.500 684.126 133.500 L 684.258 105.500 586.129 105.245 L 488 104.990 488 132.495 C 488 147.623, 487.887 160.338, 487.750 160.750 C 487.613 161.162, 496.387 161.622, 507.250 161.771 L 527 162.042 527 321.521 L 527 481 485.500 481 L 444 481 444 271 L 444 61 466 61 L 488 61 488 32.500 L 488 4 383.500 4 L 279 4 279 32.500" stroke="none" fill="#9a0404" fill-rule="evenodd"/></svg>