<svg id="visual" viewBox="0 0 960 540" width="960" height="540" xmlns="http://www.w3.org/2000/svg" xmlns:xlink="http://www.w3.org/1999/xlink" version="1.1"><path d="M0 104L87 158L175 125L262 131L349 163L436 163L524 168L611 174L698 136L785 104L873 125L960 147L960 0L873 0L785 0L698 0L611 0L524 0L436 0L349 0L262 0L175 0L87 0L0 0Z" fill="#003223"></path><path d="M0 185L87 195L175 212L262 217L349 206L436 239L524 233L611 222L698 185L785 147L873 190L960 190L960 145L873 123L785 102L698 134L611 172L524 166L436 161L349 161L262 129L175 123L87 156L0 102Z" fill="#013b2d"></path><path d="M0 228L87 249L175 287L262 309L349 303L436 336L524 298L611 282L698 260L785 255L873 287L960 255L960 188L873 188L785 145L698 183L611 220L524 231L436 237L349 204L262 215L175 210L87 193L0 183Z" fill="#014537"></path><path d="M0 357L87 395L175 347L262 368L349 428L436 449L524 363L611 390L698 352L785 379L873 368L960 401L960 253L873 285L785 253L698 258L611 280L524 296L436 334L349 301L262 307L175 285L87 247L0 226Z" fill="#024f42"></path><path d="M0 541L87 541L175 541L262 541L349 541L436 541L524 541L611 541L698 541L785 541L873 541L960 541L960 399L873 366L785 377L698 350L611 388L524 361L436 447L349 426L262 366L175 345L87 393L0 355Z" fill="#02594e"></path></svg>
<svg width="800px" height="800px" viewBox="0 0 32 32" xmlns="http://www.w3.org/2000/svg" xmlns:xlink="http://www.w3.org/1999/xlink"><defs><linearGradient id="a" x1="16.803" y1="16.631" x2="15.013" y2="22.411" gradientTransform="matrix(1, 0, 0, -1, 0, 32)" gradientUnits="userSpaceOnUse"><stop offset="0" stop-color="#512"/><stop offset="0.23" stop-color="#523"/><stop offset="0.36" stop-color="#534"/><stop offset="0.51" stop-color="#645"/><stop offset="0.66" stop-color="#568"/><stop offset="0.84" stop-color="#29d"/></linearGradient><linearGradient id="b" x1="29.71" y1="18.983" x2="11.71" y2="14.563" gradientUnits="userSpaceOnUse"><stop offset="0.081" stop-color="#c33"/><stop offset="0.189" stop-color="#de5239"/><stop offset="0.313" stop-color="#f06e3e"/><stop offset="0.421" stop-color="#fa8042"/><stop offset="0.5" stop-color="#fe8643"/><stop offset="0.58" stop-color="#fa7f42"/><stop offset="0.696" stop-color="#ef6c3e"/><stop offset="0.833" stop-color="#dc4c37"/><stop offset="0.916" stop-color="#cf3633"/></linearGradient></defs><title>file_type_matlab</title><path d="M2,17.55l7.97-3.22a20.7,20.7,0,0,1,2.72-2.95c.66-.35,1.9-.16,4.17-2.98,2.2-2.75,2.9-5.1,3.93-5.1,1.63,0,2.83,3.52,4.65,8.85A115.629,115.629,0,0,0,30,24.12c-1.9-1.77-3.52-3.68-5.37-3.63-1.72.04-3.63,2.08-5.72,4.7-1.66,2.1-3.86,3.54-4.72,3.51,0,0-2.22-6.28-4.08-7.3a2.641,2.641,0,0,0-2.39.2L2,17.54Z" style="fill:#49d"/><path d="M19.8,4.02c-.67.9-1.48,2.55-2.94,4.38-2.27,2.82-3.5,2.63-4.17,2.98a19.674,19.674,0,0,0-2.72,2.95l3.3,2.41c2.8-3.82,4.3-7.96,5.47-10.64A13.579,13.579,0,0,1,19.8,4.02Z" style="fill:url(#a)"/><path d="M20.8,3.3c-2.18,0-3.67,11.48-11.72,17.89,2.26-.37,4.22,5.24,5.12,7.51,4-.68,7.2-8.33,10.43-8.21,1.85.07,3.47,1.86,5.37,3.63C25.66,15,23.63,3.3,20.8,3.3Z" style="fill:url(#b)"/></svg>